<?xml version="1.0" encoding="UTF-8" standalone="no"?>
<!-- Created with Inkscape (http://www.inkscape.org/) -->

<svg
   width="110mm"
   height="23.916994mm"
   viewBox="0 0 110 23.916994"
   version="1.1"
   id="svg30939"
   inkscape:version="1.2.2 (732a01da63, 2022-12-09, custom)"
   sodipodi:docname="Star Destroyer.svg"
   xmlns:inkscape="http://www.inkscape.org/namespaces/inkscape"
   xmlns:sodipodi="http://sodipodi.sourceforge.net/DTD/sodipodi-0.dtd"
   xmlns="http://www.w3.org/2000/svg"
   xmlns:svg="http://www.w3.org/2000/svg">
  <sodipodi:namedview
     id="namedview30941"
     pagecolor="#ffffff"
     bordercolor="#000000"
     borderopacity="0.25"
     inkscape:showpageshadow="2"
     inkscape:pageopacity="0.0"
     inkscape:pagecheckerboard="0"
     inkscape:deskcolor="#d1d1d1"
     inkscape:document-units="mm"
     showgrid="false"
     inkscape:zoom="5.7438507"
     inkscape:cx="154.16487"
     inkscape:cy="55.276506"
     inkscape:window-width="2490"
     inkscape:window-height="1376"
     inkscape:window-x="1990"
     inkscape:window-y="27"
     inkscape:window-maximized="1"
     inkscape:current-layer="layer1" />
  <defs
     id="defs30936" />
  <g
     inkscape:label="Layer 1"
     inkscape:groupmode="layer"
     id="layer1"
     transform="translate(-70.404282,-96.767311)">
    <rect
       style="fill:none;fill-opacity:1;stroke:#f5e039;stroke-width:1.52963;stroke-linecap:round;stroke-linejoin:round;stroke-dasharray:none;stroke-dashoffset:0;stroke-opacity:1"
       id="rect37592"
       width="8.2522545"
       height="17.304289"
       x="73.171501"
       y="99.836594" />
    <path
       style="fill:#f5e039;fill-opacity:1;stroke:#f5e039;stroke-width:1.26543;stroke-linecap:round;stroke-linejoin:round;stroke-opacity:1"
       d="m 85.851761,97.4 93.460479,11.15586 -93.359039,11.49576 -8.436941,-4.39219 -6.212662,-3.31089 c -0.195395,-4.35649 -0.194562,-4.33484 -0.266578,-7.6939 l 5.684845,-2.88579 z"
       id="path31786"
       sodipodi:nodetypes="cccccccc" />
    <path
       style="fill:none;fill-opacity:1;stroke:#f5e039;stroke-width:1.38147;stroke-linecap:round;stroke-linejoin:round;stroke-dasharray:none;stroke-dashoffset:0;stroke-opacity:1"
       d="m 127.60741,108.66202 2.90717,-4.24778 -7.08345,-0.93664 -3.11448,5.01543 3.67295,5.14197 7.19809,-0.89479 z"
       id="path35712"
       sodipodi:nodetypes="ccccccc" />
    <path
       style="fill:none;fill-opacity:1;stroke:#f5e039;stroke-width:1.38147;stroke-linecap:round;stroke-linejoin:round;stroke-dasharray:none;stroke-dashoffset:0;stroke-opacity:1"
       d="m 118.72744,102.92337 -10.5946,-1.35863 -5.33911,6.92798 4.7935,7.1984 12.23803,-1.57771 -4.06335,-5.71787 z"
       id="path35714"
       sodipodi:nodetypes="ccccccc" />
    <path
       style="fill:none;fill-opacity:1;stroke:#f5e039;stroke-width:1.38147;stroke-linecap:round;stroke-linejoin:round;stroke-dasharray:none;stroke-dashoffset:0;stroke-opacity:1"
       d="m 86.912868,118.16133 16.419832,-2.10439 -4.601242,-7.53099 4.503302,-7.48807 -16.308118,-1.970093 -7.115766,9.107413 z"
       id="path36490"
       sodipodi:nodetypes="ccccccc" />
    <path
       style="fill:none;fill-opacity:1;stroke:#f5e039;stroke-width:1.38147;stroke-linecap:round;stroke-linejoin:round;stroke-dasharray:none;stroke-dashoffset:0;stroke-opacity:1"
       d="m 90.633674,105.11259 0.0084,1.55619"
       id="path37563"
       sodipodi:nodetypes="cc" />
    <path
       style="fill:none;fill-opacity:1;stroke:#f5e039;stroke-width:1.38147;stroke-linecap:round;stroke-linejoin:round;stroke-dasharray:none;stroke-dashoffset:0;stroke-opacity:1"
       d="m 90.727882,110.4618 0.0084,1.5562"
       id="path37563-0"
       sodipodi:nodetypes="cc" />
    <path
       style="fill:#000000;fill-rule:evenodd;stroke:#f5e039;stroke-width:0.0357154;stroke-dasharray:none;stroke-opacity:1"
       d="m 87.526188,117.53583 c 0,-0.007 -1.494508,-2.11382 -3.321127,-4.68238 l -3.321126,-4.67011 3.329135,-4.26047 3.329137,-4.26048 0.238352,0.03026 c 0.131095,0.01664 3.37627,0.40931 7.211503,0.87258 l 6.973148,0.84232 -2.102306,3.48806 c -1.15627,1.91843 -2.104759,3.54815 -2.107754,3.62159 -0.0037,0.0877 0.735029,1.3434 2.147074,3.65054 1.183886,1.93434 2.142966,3.52107 2.131276,3.52605 -0.0259,0.0111 -14.404298,1.85431 -14.464583,1.85431 -0.0235,0 -0.04273,-0.006 -0.04273,-0.0123 z m 6.766738,-3.23085 c 0.257396,-0.0797 0.390427,-0.16185 0.504151,-0.31129 0.121943,-0.16026 0.114132,-10.70476 -0.0081,-10.87889 -0.116752,-0.16636 -0.27258,-0.25212 -0.594633,-0.32728 -0.243516,-0.0568 -0.499279,-0.0614 -3.488006,-0.062 l -3.225219,-7.4e-4 -0.289544,0.0776 c -0.180227,0.0484 -0.345067,0.12709 -0.436608,0.20866 l -0.147063,0.13104 0.01562,5.44781 0.01562,5.44782 0.137438,0.0942 c 0.07558,0.0519 0.235169,0.12805 0.354622,0.16937 l 0.217188,0.0752 3.357232,-1.3e-4 c 3.310964,-1.4e-4 3.360398,-9.9e-4 3.587168,-0.0713 z"
       id="path34279" />
    <path
       style="fill:#000000;fill-rule:evenodd;stroke:#f5e039;stroke-width:0.0354013;stroke-opacity:1"
       d="m 108.22059,115.06794 c 0,-0.01 -0.9756,-1.48236 -2.16799,-3.27287 -1.19239,-1.79052 -2.16798,-3.27007 -2.16798,-3.28788 0,-0.0358 4.77259,-6.23709 4.84755,-6.29871 0.0333,-0.0274 1.29706,0.12197 4.36323,0.51549 2.374,0.30468 4.33137,0.5616 4.34971,0.57093 0.0183,0.009 -0.57151,1.13201 -1.31076,2.49488 -0.73926,1.36287 -1.34412,2.53673 -1.34412,2.60857 0,0.0872 0.61205,0.99197 1.83951,2.71938 1.01173,1.42383 1.8395,2.60166 1.8395,2.61743 0,0.0158 -2.25421,0.31914 -5.00936,0.67413 -2.75514,0.35502 -5.0611,0.65235 -5.12433,0.66076 -0.0632,0.008 -0.11496,0.008 -0.11496,-0.002 z"
       id="path34281" />
    <path
       style="fill:#000000;fill-rule:evenodd;stroke:#f5e039;stroke-width:0.0354013;stroke-opacity:1"
       d="m 124.61747,113.01125 c -0.0873,-0.0754 -3.21466,-4.50443 -3.20917,-4.54494 0.01,-0.0709 2.64906,-4.31734 2.70125,-4.34584 0.0407,-0.0221 4.97737,0.6169 5.04989,0.65374 0.0192,0.01 -0.55987,0.88673 -1.28718,1.94865 -0.72728,1.06191 -1.32235,1.94307 -1.32235,1.95811 0,0.0151 0.72537,0.85392 1.61194,1.86419 0.88655,1.01026 1.60346,1.84046 1.59313,1.84491 -0.0615,0.0264 -5.11823,0.63783 -5.13751,0.62118 z"
       id="path34283" />
    <path
       style="fill:#000000;fill-opacity:1;fill-rule:evenodd;stroke:#f5e039;stroke-width:0.0586613;stroke-opacity:1"
       d="m 88.639005,108.55108 v -4.45757 h 2.084318 2.084317 v 4.45757 4.45757 h -2.084317 -2.084318 z m 2.621902,3.94749 0.238926,-0.21537 -0.0012,-0.98191 c -7.91e-4,-0.64329 -0.03685,-1.04544 -0.104565,-1.16611 -0.248363,-0.44261 -1.002339,-0.47263 -1.287368,-0.0513 -0.135901,0.20091 -0.158891,0.3706 -0.156681,1.15644 0.0028,0.98658 0.06635,1.19683 0.414485,1.37076 0.32566,0.1627 0.633996,0.12399 0.896408,-0.11255 z m -0.07556,-5.38413 0.245106,-0.22094 -0.02662,-1.02589 c -0.0248,-0.95574 -0.03963,-1.03836 -0.21698,-1.20832 -0.227375,-0.2179 -0.52681,-0.28204 -0.846964,-0.18144 -0.392311,0.12328 -0.474822,0.37692 -0.474822,1.45964 v 0.96715 l 0.238926,0.21537 c 0.332316,0.29955 0.745212,0.29743 1.081348,-0.006 z"
       id="path41810" />
    <path
       style="fill:#000000;fill-opacity:1;fill-rule:evenodd;stroke:#f5e039;stroke-width:0.987019;stroke-dasharray:none;stroke-opacity:1"
       d="m 13.492691,70.597239 c 0,-1.867214 0.05876,-3.392679 0.130574,-3.389921 0.07182,0.0028 2.990154,1.52963 6.485196,3.39305 l 6.354622,3.388037 -6.485196,0.0019 -6.485196,0.0019 z"
       id="path43373"
       transform="matrix(0.26458333,0,0,0.26458333,70.404282,96.767311)" />
    <path
       style="fill:#000000;fill-opacity:1;fill-rule:evenodd;stroke:#f5e039;stroke-width:0.987019;stroke-dasharray:none;stroke-opacity:1"
       d="m 13.492691,18.033322 v -3.408986 l 6.746345,0.0031 6.746345,0.0031 -4.352481,2.141552 c -2.393864,1.177853 -5.42972,2.710518 -6.746345,3.405922 l -2.393864,1.264369 z"
       id="path43375"
       transform="matrix(0.26458333,0,0,0.26458333,70.404282,96.767311)" />
  </g>
</svg>
